<mxfile host="app.diagrams.net" modified="2023-06-09T09:12:26.174Z" agent="Mozilla/5.0 (Windows NT 10.0; Win64; x64) AppleWebKit/537.36 (KHTML, like Gecko) Chrome/112.0.0.0 YaBrowser/23.5.1.721 Yowser/2.5 Safari/537.36" version="21.3.8" etag="NYFJPFSM_zTO131s2fKk" type="github">
  <diagram name="Страница 1" id="KuR3PFfPS9gBqdU8IZCy">
    <mxGraphModel>
      <root>
        <mxCell id="0" />
        <mxCell id="1" parent="0" />
      </root>
    </mxGraphModel>
  </diagram>
</mxfile>
